<svg width="27" height="27" viewBox="0 0 27 27" fill="none" xmlns="http://www.w3.org/2000/svg">
<g clip-path="url(#clip0_212_4840)">
<path d="M23.8262 7.94946V11.3181L25.9655 9.72886L23.8262 7.94946Z" fill="#5C504F"/>
<path d="M14.8006 0.47203C14.0468 -0.152797 12.9533 -0.159589 12.1994 0.465238L11.3369 1.19873H15.6767L14.8006 0.47203Z" fill="#5C504F"/>
<path d="M15.5271 19.1829C14.943 19.6175 14.2366 19.8552 13.5099 19.8485C12.7832 19.8485 12.0701 19.6175 11.486 19.1829L0.66703 11.1077V24.9557C0.660239 26.0764 1.56352 26.9932 2.68414 27H24.3154C25.436 26.9932 26.3393 26.0764 26.3325 24.9557V11.1077L15.5271 19.1829Z" fill="#5C504F"/>
<path d="M1.04102 9.72902L3.11245 11.2707V8.01074L1.04102 9.72902Z" fill="#5C504F"/>
<path d="M4.4707 2.55713V12.2827L12.281 18.0963C13.0077 18.6261 14.0061 18.6261 14.7328 18.0963L22.4684 12.3302V2.55713H4.4707ZM9.29274 7.99041H12.9602C13.3337 7.99041 13.6394 8.29603 13.6394 8.66957C13.6394 9.04311 13.3337 9.34873 12.9602 9.34873H9.29274C8.9192 9.34873 8.61358 9.04311 8.61358 8.66957C8.61358 8.29603 8.9192 7.99041 9.29274 7.99041ZM17.7143 12.7445H9.29274C8.9192 12.7445 8.61358 12.4389 8.61358 12.0654C8.61358 11.6918 8.9192 11.3862 9.29274 11.3862H17.7143C18.0879 11.3862 18.3935 11.6918 18.3935 12.0654C18.3935 12.4389 18.0879 12.7445 17.7143 12.7445Z" fill="#5C504F"/>
</g>
<defs>
<clipPath id="clip0_212_4840">
<rect width="27" height="27" fill="white"/>
</clipPath>
</defs>
</svg>
