<svg width="23" height="25" viewBox="0 0 23 25" fill="none" xmlns="http://www.w3.org/2000/svg">
<g id="Group 1000004242">
<path id="Vector" d="M14.7055 21.3313C14.7055 22.5313 14.0051 23.4497 12.8676 24.05C11.7305 24.65 10.3293 24.65 9.19433 24.05C8.05649 23.4497 7.35645 22.5313 7.35645 21.3313" fill="black"/>
<path id="Vector_2" d="M11.0318 0.37915C12.074 0.37915 12.9134 0.964664 12.9134 1.86507C12.9134 2.4318 12.9351 2.85467 13.3259 2.96299C16.6493 3.87747 18.7804 6.021 18.7804 8.80471V13.4834C18.7804 15.627 19.7427 16.0609 20.9538 16.8808C22.7076 18.0663 22.3073 20.5348 20.2947 20.5331H1.76971C-0.242863 20.5348 -0.643243 18.0663 1.11063 16.8808C2.32024 16.0609 3.28402 15.627 3.28402 13.4834V8.80471C3.28402 6.021 5.41509 3.87747 8.73847 2.96299C9.12818 2.85467 9.151 2.4318 9.151 1.86507C9.15137 0.964664 9.99114 0.37915 11.0318 0.37915Z" fill="black"/>
</g>
</svg>
