<svg width="11" height="11" viewBox="0 0 11 11" fill="none" xmlns="http://www.w3.org/2000/svg">
<path d="M8.5555 5.07078L3.66036 0.17573C3.54714 0.0624223 3.396 0 3.23485 0C3.07369 0 2.92256 0.0624223 2.80934 0.17573L2.44885 0.536134C2.21427 0.770977 2.21427 1.15267 2.44885 1.38715L6.55941 5.49772L2.44428 9.61285C2.33107 9.72616 2.26855 9.8772 2.26855 10.0383C2.26855 10.1995 2.33107 10.3506 2.44428 10.464L2.80478 10.8243C2.91809 10.9376 3.06913 11 3.23029 11C3.39144 11 3.54258 10.9376 3.6558 10.8243L8.5555 5.92475C8.66898 5.81108 8.73132 5.65932 8.73096 5.49799C8.73132 5.33603 8.66898 5.18436 8.5555 5.07078Z" fill="#544241"/>
</svg>
