<svg width="9" height="9" viewBox="0 0 9 9" fill="none" xmlns="http://www.w3.org/2000/svg">
<path d="M8.28604 3.187C8.23165 3.01878 8.08245 2.8993 7.90592 2.88339L5.50809 2.66567L4.55993 0.446392C4.49002 0.283748 4.33079 0.178467 4.15389 0.178467C3.97698 0.178467 3.81776 0.283748 3.74785 0.446773L2.79968 2.66567L0.401475 2.88339C0.225267 2.89968 0.0764404 3.01878 0.0217398 3.187C-0.0329609 3.35522 0.0175564 3.53974 0.150854 3.65605L1.96333 5.2456L1.42887 7.59988C1.38976 7.77298 1.45695 7.95192 1.60058 8.05574C1.67778 8.11152 1.7681 8.13991 1.85919 8.13991C1.93772 8.13991 2.01562 8.11874 2.08553 8.07691L4.15389 6.84073L6.22148 8.07691C6.37278 8.16793 6.56351 8.15963 6.70682 8.05574C6.85051 7.9516 6.91763 7.7726 6.87853 7.59988L6.34407 5.2456L8.15654 3.65636C8.28984 3.53974 8.34074 3.35554 8.28604 3.187Z" fill="#FF9900"/>
</svg>
